{"title":"Geordie Shore S11E08 1080P WEB-DL AAC2 0 H 264","uid":12943807,"size":1604181007,"categoryP":"video","categoryS":"hd___tv_shows","magnet":"?xt=urn:btih:839fc344644f24c42f1ab386488cf95b372873df&amp;dn=+Geordie+Shore+S11E08+1080P+WEB-DL+AAC2+0+H+264&amp;tr=udp%3A%2F%2Ftracker.leechers-paradise.org%3A6969&amp;tr=udp%3A%2F%2Fzer0day.ch%3A1337&amp;tr=udp%3A%2F%2Fopen.demonii.com%3A1337&amp;tr=udp%3A%2F%2Ftracker.coppersurfer.tk%3A6969&amp;tr=udp%3A%2F%2Fexodus.desync.com%3A6969","seeders":1,"leechers":0,"uploader":"jmanwf","files":1,"time":1449656628,"description":"After his dramatic exit the Geordies come to terms with life after Kyle. Chloe's plans to make Scott jealous backfires and Charlotte gives Holly some very tough love.\r\n\r\n\r\nVideo\r\nID : 2\r\nFormat : AVC\r\nFormat/Info : Advanced Video Codec\r\nFormat profile :   \r\nFormat settings, CABAC : Yes\r\nFormat settings, ReFrames : 4 frames\r\nCodec ID : avc1\r\nCodec ID/Info : Advanced Video Coding\r\nDuration : 41mn 57s\r\nBit rate : 4 966 Kbps\r\nWidth : 1 920 pixels\r\nHeight : 1 080 pixels\r\nDisplay aspect ratio : 16:9\r\nFrame rate mode : Constant\r\nFrame rate : 25.000 fps\r\nColor space : YUV\r\nChroma subsampling : 4:2:0\r\nBit depth : 8 bits\r\nScan type : Progressive\r\nBits/(Pixel*Frame) : 0.096\r\nStream size : 1.46 GiB (97%)\r\nLanguage : English\r\nEncoded date : UTC 2015-12-09 04:22:29\r\nTagged date : UTC 2015-12-09 04:25:30\r\nColor range : Limited\r\nColor primaries : BT.709\r\nTransfer characteristics : BT.709\r\nMatrix coefficients : BT.709\r\n\r\nAudio\r\nID : 1\r\nFormat : AAC\r\nFormat/Info : Advanced Audio Codec\r\nFormat profile : LC\r\nCodec ID : 40\r\nDuration : 41mn 57s\r\nBit rate mode : Variable\r\nBit rate : 126 Kbps\r\nMaximum bit rate : 207 Kbps\r\nChannel(s) : 2 channels\r\nChannel positions : Front: L R\r\nSampling rate : 48.0 KHz\r\nCompression mode : Lossy\r\nStream size : 37.8 MiB (2%)\r\nLanguage : English\r\nEncoded date : UTC 2015-12-09 04:22:29\r\nTagged date : UTC 2015-12-09 04:25:30","torrent":{"xt":"urn:btih:839fc344644f24c42f1ab386488cf95b372873df","amp;dn":"+Geordie+Shore+S11E08+1080P+WEB-DL+AAC2+0+H+264","amp;tr":["udp%3A%2F%2Ftracker.leechers-paradise.org%3A6969","udp%3A%2F%2Fzer0day.ch%3A1337","udp%3A%2F%2Fopen.demonii.com%3A1337","udp%3A%2F%2Ftracker.coppersurfer.tk%3A6969","udp%3A%2F%2Fexodus.desync.com%3A6969"],"infoHash":"839fc344644f24c42f1ab386488cf95b372873df","infoHashBuffer":{"type":"Buffer","data":[131,159,195,68,100,79,36,196,47,26,179,134,72,140,249,91,55,40,115,223]},"announce":[],"urlList":[]}}